<?xml version="1.0" encoding="utf-8"?>
<svg viewBox="0 0 500 500" xmlns="http://www.w3.org/2000/svg">
  <path d="M 355.758 179.546 C 355.758 241.446 305.658 291.546 243.758 291.546 C 181.858 291.546 131.758 241.446 131.758 179.546 C 131.758 117.646 181.858 67.546 243.758 67.546 C 305.658 67.546 355.758 117.646 355.758 179.546 Z M 275.758 352.646 C 357.658 337.646 419.758 265.846 419.758 179.546 C 419.758 82.346 340.958 3.546 243.758 3.546 C 146.558 3.546 67.758 82.346 67.758 179.546 C 67.758 265.846 129.858 337.646 211.758 352.646 L 211.758 387.546 L 179.758 387.546 C 162.058 387.546 147.758 401.846 147.758 419.546 C 147.758 437.246 162.058 451.546 179.758 451.546 L 211.758 451.546 L 211.758 483.546 C 211.758 501.246 226.058 515.546 243.758 515.546 C 261.458 515.546 275.758 501.246 275.758 483.546 L 275.758 451.546 L 307.758 451.546 C 325.458 451.546 339.758 437.246 339.758 419.546 C 339.758 401.846 325.458 387.546 307.758 387.546 L 275.758 387.546 L 275.758 352.646 Z" style="fill: rgb(217, 83, 232);"/>
</svg>