<?xml version="1.0" encoding="utf-8"?>
<svg viewBox="0 0 500 500" xmlns="http://www.w3.org/2000/svg">
  <path d="M 313.125 36.341 C 316.825 27.341 325.625 21.541 335.325 21.541 L 447.325 21.541 C 460.625 21.541 471.325 32.241 471.325 45.541 L 471.325 157.541 C 471.325 167.241 465.525 176.041 456.525 179.741 C 447.525 183.441 437.225 181.441 430.325 174.541 L 396.925 141.141 L 344.325 193.741 C 363.825 222.141 375.325 256.441 375.325 293.541 C 375.325 390.741 296.525 469.541 199.325 469.541 C 102.125 469.541 23.325 390.741 23.325 293.541 C 23.325 196.341 102.125 117.541 199.325 117.541 C 236.325 117.541 270.725 128.941 299.125 148.541 L 351.725 95.941 L 318.325 62.541 C 311.425 55.641 309.425 45.341 313.125 36.341 Z M 423.325 69.541 Z M 199.325 405.541 C 261.225 405.541 311.325 355.441 311.325 293.541 C 311.325 231.641 261.225 181.541 199.325 181.541 C 137.425 181.541 87.325 231.641 87.325 293.541 C 87.325 355.441 137.425 405.541 199.325 405.541 Z" style="fill: rgb(92, 101, 207);"/>
</svg>