<?xml version="1.0" encoding="utf-8"?>
<svg viewBox="0 0 500 500" xmlns="http://www.w3.org/2000/svg">
  <path d="M 354.568 186.878 C 354.568 248.778 304.468 298.878 242.568 298.878 C 180.668 298.878 130.568 248.778 130.568 186.878 C 130.568 124.978 180.668 74.878 242.568 74.878 C 304.468 74.878 354.568 124.978 354.568 186.878 Z M 274.568 359.978 C 356.468 344.978 418.568 273.178 418.568 186.878 C 418.568 89.678 339.768 10.878 242.568 10.878 C 145.368 10.878 66.568 89.678 66.568 186.878 C 66.568 273.178 128.668 344.978 210.568 359.978 L 210.568 490.878 C 210.568 508.578 224.868 522.878 242.568 522.878 C 260.268 522.878 274.568 508.578 274.568 490.878 L 274.568 359.978 Z" style="fill: rgb(52, 217, 165);"/>
</svg>