<?xml version="1.0" encoding="utf-8"?>
<svg viewBox="0 0 500 500" xmlns="http://www.w3.org/2000/svg">
  <path d="M 241.075 89.26 C 206.982 93.736 177.33 107.914 153.612 131.164 C 133.139 151.198 119.399 175.366 112.499 203.494 C 109.535 215.602 108.509 224.902 108.569 238.51 C 108.623 263.194 113.471 283.51 124.589 305.902 C 135.707 328.174 153.27 348.094 174.708 362.56 C 203.334 381.844 239.653 391.144 272.437 387.526 C 310.069 383.338 340.118 369.16 365.432 343.498 C 399.644 308.77 414.014 263.878 406.712 213.826 C 402.494 184.432 385.676 152.056 363.836 131.104 C 343.196 111.358 318.391 97.924 291.253 91.84 C 275.689 88.396 255.673 87.304 241.075 89.26 Z M 277.057 108.202 C 318.163 114.232 354.488 140.806 373.304 178.636 C 379.004 190.114 383.108 203.092 385.16 215.836 C 386.588 224.674 386.588 248.38 385.16 256.588 C 381.344 278.29 373.586 296.656 360.59 314.278 C 358.418 317.266 352.778 323.578 348.098 328.288 L 339.608 336.784 L 339.95 341.206 L 340.292 345.568 L 338.636 339.25 C 336.698 331.732 334.988 327.544 332.48 324.214 C 331.454 322.834 330.596 321.4 330.596 320.998 C 330.656 320.65 332.078 319.276 333.848 318.01 C 337.04 315.718 341.432 311.068 343.826 307.39 C 344.678 306.184 345.878 305.212 347.072 304.864 C 349.928 304.06 353.174 300.676 353.918 297.748 C 354.716 294.934 354.428 293.614 352.49 290.686 L 351.068 288.622 L 352.322 282.94 C 353.576 277.312 353.576 277.198 352.604 268.36 C 352.094 263.476 351.692 258.772 351.692 257.968 C 351.692 255.958 347.3 247.12 343.826 242.242 C 338.006 233.974 335.84 232.024 327.403 227.89 C 317.593 223.012 314.005 222.208 304.081 222.61 C 295.417 222.952 288.115 224.614 281.449 227.83 C 274.717 231.046 267.079 238.678 259.723 249.646 C 257.215 253.318 257.041 253.78 257.041 257.338 C 257.041 260.092 256.471 262.792 254.989 267.442 C 252.481 275.302 252.595 277.138 256.189 283.282 C 257.611 285.694 258.751 287.992 258.751 288.274 C 258.751 288.622 258.013 289.714 257.041 290.746 C 254.023 294.016 254.077 299.068 257.215 302.458 C 258.979 304.348 263.317 306.13 264.397 305.386 C 264.685 305.212 264.457 303.778 263.827 302.224 C 262.117 297.694 262.573 297.52 264.685 301.942 C 268.843 310.78 274.489 316.462 283.555 320.938 C 290.395 324.268 296.269 325.762 304.651 326.164 C 308.413 326.338 310.981 326.68 310.357 326.908 C 306.931 328.114 291.199 325.876 283.957 323.122 L 280.189 321.688 L 279.223 323.008 C 277.111 325.762 272.953 334.888 271.927 338.962 C 271.357 341.32 270.553 346.084 270.157 349.528 C 269.017 360.262 268.561 361.234 267.361 354.922 C 265.369 344.476 251.971 294.994 250.315 292.006 C 250.087 291.55 246.493 290.344 242.335 289.312 C 238.17 288.22 233.61 286.954 232.182 286.384 C 230.814 285.868 229.5 285.58 229.332 285.754 C 229.158 285.922 230.13 287.59 231.498 289.426 C 232.866 291.262 234.804 294.076 235.83 295.624 C 238.512 299.932 244.729 313.36 246.553 318.7 C 248.545 324.382 248.377 324.784 242.389 329.896 C 240.109 331.846 238.224 333.856 238.224 334.372 C 238.224 334.834 240.847 337.702 244.045 340.684 C 249.571 345.91 249.799 346.252 249.343 347.86 L 248.833 349.582 L 248.605 347.806 C 248.491 346.426 247.123 344.878 242.503 340.456 C 239.197 337.414 236.514 334.546 236.514 334.084 C 236.514 333.682 238.566 331.558 241.021 329.38 C 247.291 323.98 247.351 323.638 244.783 317.038 C 240.451 305.956 231.156 288.85 227.736 285.634 C 226.65 284.602 226.254 283.63 226.254 282.076 C 226.254 279.724 226.764 279.148 229.674 278.176 C 232.638 277.198 235.548 274.96 237.54 272.146 C 239.137 269.908 239.821 269.506 244.213 268.126 C 246.895 267.268 249.061 266.35 249.061 266.122 C 249.061 265.834 248.035 264.34 246.781 262.846 C 244.327 259.864 243.871 257.74 245.527 257.224 C 246.037 257.05 248.035 256.762 249.913 256.534 C 251.797 256.36 253.507 256.072 253.735 255.904 C 253.963 255.784 253.393 253.606 252.481 251.08 C 251.509 248.554 250.771 246.142 250.771 245.8 C 250.771 245.398 252.253 244.648 254.077 244.018 C 258.127 242.698 265.027 239.254 265.027 238.564 C 265.027 238.276 262.915 236.902 260.407 235.522 C 255.445 232.882 250.429 228.862 251.167 228.178 C 251.395 227.944 253.453 227.14 255.619 226.456 C 261.091 224.614 266.905 221.92 271.471 218.992 C 273.577 217.672 275.287 216.466 275.173 216.406 C 274.945 216.238 259.495 209.578 258.013 209.062 C 257.329 208.774 257.155 208.426 257.443 207.91 C 257.671 207.454 261.433 203.776 265.765 199.762 C 270.043 195.682 273.577 192.184 273.577 191.956 C 273.577 191.494 270.043 190.864 259.609 189.37 C 255.847 188.794 252.541 188.224 252.313 187.99 C 252.025 187.762 254.647 182.71 258.127 176.8 C 263.773 167.098 264.853 165.034 264.283 165.034 C 264.169 165.034 259.495 166.696 253.909 168.76 C 245.755 171.748 243.529 172.324 242.959 171.748 C 241.705 170.482 240.505 161.014 240.505 152.518 L 240.505 144.31 L 235.89 146.776 C 230.472 149.704 223.23 155.386 219.864 159.346 C 218.61 160.9 217.302 162.16 217.074 162.16 C 216.786 162.16 214.62 159.52 212.166 156.25 C 207.948 150.622 200.82 142.642 200.022 142.642 C 199.794 142.642 199.338 145.168 198.996 148.21 C 197.97 156.82 194.952 167.326 193.464 167.326 C 193.068 167.326 190.332 166.18 187.422 164.8 C 182.748 162.622 175.62 160.438 172.998 160.438 C 172.314 160.438 172.656 161.47 174.312 164.86 C 176.82 169.966 179.1 177.946 178.812 180.7 L 178.644 182.542 L 173.508 182.944 C 158.574 184.09 151.56 184.78 151.56 185.068 C 151.56 185.296 154.068 187.99 157.146 191.152 C 162.906 197.008 167.124 203.26 166.842 205.444 C 166.728 206.248 163.818 208.66 157.83 212.848 C 152.982 216.238 148.938 219.28 148.824 219.562 C 148.71 219.85 149.334 220.252 150.246 220.486 C 156.348 221.806 158.97 222.664 161.136 223.93 C 164.1 225.706 167.184 228.346 168.72 230.53 L 169.86 232.138 L 163.476 238.51 C 158.118 243.904 157.206 244.996 157.89 245.626 C 158.346 246.028 161.766 247.348 165.528 248.494 C 169.29 249.646 172.596 250.852 172.884 251.134 C 173.166 251.422 172.71 254.35 171.63 258.37 C 170.658 262.102 170.034 265.372 170.202 265.66 C 170.49 266.176 179.898 265.72 181.434 265.144 C 182.862 264.628 183.432 266.002 183.834 270.538 C 184.062 273.178 184.404 275.416 184.632 275.536 C 185.088 275.818 191.472 273.064 191.472 272.608 C 191.472 272.434 190.728 271.228 189.816 269.908 C 186 264.28 183.372 257.224 181.32 246.832 C 179.952 240.232 179.328 233.914 180.012 233.914 C 180.24 233.914 180.636 235.75 180.864 237.994 C 182.004 250.792 187.878 267.04 193.236 272.434 C 194.61 273.814 197.574 275.764 200.424 277.084 L 205.212 279.322 L 205.044 281.446 L 204.87 283.57 L 192.21 287.818 L 179.556 292.066 L 178.416 295.57 C 177.786 297.52 175.164 306.418 172.656 315.43 C 167.982 331.786 166.554 335.92 167.238 331.042 C 167.526 328.63 167.412 328.402 164.502 325.186 C 146.315 305.44 135.077 282.304 130.691 255.442 C 129.035 245.626 129.209 224.614 130.973 214.972 C 135.935 187.876 146.885 165.778 164.784 146.89 C 193.98 116.182 234.864 102.058 277.057 108.202 Z M 199.908 293.728 C 195.804 302.284 188.508 322.774 189.132 323.866 C 189.42 324.382 191.868 326.74 194.61 329.146 C 197.4 331.558 199.74 333.796 199.854 334.198 C 200.022 334.6 199.17 335.866 197.97 337.072 C 196.716 338.392 196.26 338.68 196.83 337.816 C 199.056 334.312 199.224 334.774 193.464 329.434 C 189.588 325.816 188.052 324.04 188.052 323.062 C 188.052 320.08 199.338 291.322 200.538 291.322 C 200.82 291.322 200.538 292.408 199.908 293.728 Z" style="fill: rgb(255, 255, 255);"/>
</svg>